<svg preserveAspectRatio="none" overflow="visible" style="display: block;" width="204.337" height="221.05" viewBox="0 0 204.337 221.05" fill="none" xmlns="http://www.w3.org/2000/svg">
<g id="Group">
<path id="Vector" d="M198.672 176.072L168.575 216.481L121.713 215.066L5.37301 41.0383L28.2754 5.07408L71.9566 14.7357L198.672 176.072Z" fill="white" stroke="#181C18" stroke-width="9" stroke-miterlimit="10"/>
<g id="Group_2">
<path id="Vector_2" d="M164.057 174.471L59.5724 27.7036C59.4296 27.4225 59.2487 27.1557 59.0154 26.9175C55.9681 23.8065 49.3973 24.4259 42.698 28.6612C35.932 32.9346 32.9657 40.3285 34.0037 42.8963C34.1513 43.2584 34.3607 43.5776 34.6274 43.8539L34.5702 43.892L139.878 191.684C144.63 194.119 149.944 193.047 156.115 188.959C162.733 184.576 165.9 177.535 164.057 174.467V174.471Z" fill="#374BFF" stroke="#FFE600" stroke-width="5" stroke-miterlimit="10"/>
<g id="Group_3">
<g id="Group_4">
<path id="Vector_3" d="M34.908 42.4676C32.5844 33.7446 50.3112 21.5294 59.396 26.9795" stroke="#FFE600" stroke-width="5" stroke-miterlimit="10"/>
<path id="Vector_4" d="M59.3959 26.9794C61.1386 35.0498 47.4352 45.0544 34.6889 42.9011" stroke="#FFE600" stroke-width="5" stroke-miterlimit="10"/>
</g>
<path id="Vector_5" d="M35.3795 42.7153C35.5271 43.3251 35.3175 43.8968 34.9176 43.9968C34.7842 44.0302 34.6747 44.035 34.5129 43.9825C34.1367 43.8634 34.0462 43.4728 33.9224 43.0678C33.8844 42.944 33.8796 42.8773 33.851 42.7486C33.7558 42.3008 34.0653 41.8625 34.3843 41.7863C34.789 41.691 35.2319 42.1055 35.3795 42.7153Z" fill="#FFE600"/>
<path id="Vector_6" d="M60.4914 26.8698C60.639 27.4796 60.4295 28.0513 60.0296 28.1513C59.8962 28.1847 59.7867 28.1894 59.6248 28.137C59.2486 28.0179 59.1582 27.6273 59.0344 27.2223C58.9963 27.0985 58.9915 27.0318 58.963 26.9031C58.8677 26.4553 59.1773 26.017 59.4963 25.9408C59.901 25.8455 60.3438 26.26 60.4914 26.8698Z" fill="#FFE600"/>
</g>
</g>
<g id="Group_5">
<path id="Vector_7" d="M174.97 176.839C174.232 189.731 156.31 202.489 135.512 200.65" stroke="#FFE600" stroke-width="8" stroke-miterlimit="10"/>
<path id="Vector_8" d="M27.9655 47.4984L137.073 201.512" stroke="#FFE600" stroke-width="8" stroke-miterlimit="10"/>
</g>
</g>
</svg>
