<svg preserveAspectRatio="none" overflow="visible" style="display: block;" width="252.28" height="170.783" viewBox="0 0 252.28 170.783" fill="none" xmlns="http://www.w3.org/2000/svg">
<g id="Group">
<g id="Group_2">
<path id="Vector" d="M125.538 146.842L121.995 121.559L58.1651 127.946L0 56.0808L17.7279 0L64.3803 28.7215L121.062 4.20874L142.981 27.1145L179.752 20.9876L252.28 92.5362L213.439 170.783L125.538 146.842Z" fill="#181C18"/>
<path id="Vector_2" d="M245.448 93.679L177.85 26.9921L140.977 33.1394L119.706 10.907L63.9266 35.032L20.9095 8.54504L6.25609 54.8973L60.6176 122.059L126.798 115.437L130.581 142.398L210.466 164.156L245.448 93.679Z" fill="white"/>
</g>
<path id="Vector_3" d="M148.849 49.7958L154.871 57.0247L165.501 70.3141C169.458 75.2626 173.266 80.0886 177.825 84.4861C180.302 90.6895 186.548 84.9962 190.627 84.9554L191.983 88.6183C192.488 89.9855 194.125 89.3682 195.109 88.7713C196.812 87.7459 199.601 88.8581 201.217 88.2867C204.546 85.8125 200.539 76.9461 198.79 75.1656C192.075 68.3194 176.32 49.5816 175.841 40.1132C176.3 39.6541 176.948 39.649 177.478 39.7969C179.109 40.256 177.758 42.062 180.022 44.5566C183.499 48.3929 181.995 50.6835 186.722 55.2136C189.521 57.897 191.249 61.1161 193.686 64.0597L198.969 70.4314C200.126 71.8292 201.436 73.0995 203.399 72.7577C205.933 72.3139 207.473 73.7627 209.431 74.8595C212.541 76.5991 215.983 77.6296 218.97 79.609C222.932 82.2363 221.535 87.4398 228.831 88.0877C230.218 88.2102 231.126 88.149 231.768 89.006C232.329 89.7559 232.762 90.9089 232.354 91.9139C231.396 94.2656 231.799 96.7348 231.202 99.0713C230.136 103.265 228.316 107.274 226.613 111.238C225.874 112.952 224.319 114.156 223.819 116.064C223.054 118.982 216.131 114.284 214.438 127.681C213.525 134.899 207.616 139.939 207.448 141.96C207.233 144.5 205.525 145.505 203.726 146.821C199.937 149.597 195.619 150.795 190.974 149.224C183.831 146.806 183.561 149.556 178.141 145.883C176.473 144.755 174.332 144.755 172.359 144.459C168.876 143.929 165.853 142.725 162.6 141.5C159.628 140.383 156.125 139.48 154.274 136.629C151.562 132.45 154.294 125.599 158.378 122.533C160.907 120.635 172.369 118.962 176.106 117.151C178.498 115.988 178.396 112.422 178.916 110.289C179.731 106.968 179.186 103.887 176.377 101.775C176.57 100.464 177.631 99.4488 177.417 98.2397C176.8 94.6993 172.114 94.0412 172.41 91.8016C172.614 90.2406 175.153 90.4038 174.974 88.1643C174.765 85.5829 172.537 86.3328 171.39 82.3639C170.707 80.0121 168.402 79.2111 166.888 77.5582C164.487 74.9361 163.084 71.2273 160.178 69.0489C157.629 67.1359 153.973 61.8558 152.255 59.0959C151.235 57.4532 146.182 53.5454 147.671 50.3366C147.829 49.9999 148.543 50.1326 148.854 49.7908L148.849 49.7958ZM204.409 75.737L203.899 75.7625C203.654 75.7115 203.404 75.6401 203.175 75.7166C202.925 75.8033 202.828 76.1043 202.91 76.4563C202.956 76.6451 203.155 76.9307 203.46 76.7522C203.445 77.094 203.833 77.4256 203.863 77.7572C204.195 81.3435 207.963 86.4961 201.854 91.4139C201.497 91.3119 200.881 91.5109 200.875 91.9343L199.387 91.868C198.525 91.3782 197.368 91.5057 196.705 92.2404C196.215 92.7862 195.094 94.0514 195.338 95.0768C196.868 101.489 197.546 107.744 197.352 114.641C203.884 105.938 206.744 108.943 210.277 105.974C211.328 105.091 209.91 103.453 209.793 102.433L208.075 87.9449C207.697 84.7718 209.222 81.5374 208.676 78.4612C208.319 77.0379 206.091 76.3135 205.026 75.7013C204.852 75.1299 204.424 75.1299 204.409 75.7268V75.737ZM220.005 87.1286C219.19 85.4809 214.009 78.6499 213.046 81.2007C211.685 84.8024 211.873 88.7611 212.669 92.5363C212.194 95.1329 212.985 97.347 213.546 99.7804C213.892 101.285 213.403 102.938 215.376 103.948C217.002 100.505 221.535 90.1997 220.011 87.1286H220.005ZM180.461 92.0516L179.951 92.0771C179.405 92.1026 178.809 91.6486 178.156 92.623C180.547 93.9085 180.925 96.2246 182.041 98.2703C182.622 99.3366 190.199 96.7246 190.163 96.143C190.306 96.1583 190.459 96.1532 190.602 96.1328C191.137 96.0563 191.744 96.3165 192.187 95.8879C190.265 94.1687 190.541 87.5623 185.891 89.358C183.968 90.1028 182.23 91.2558 180.455 92.0516H180.461ZM223.855 107.652C226.261 102.52 228.357 97.7602 228.801 92.3016C228.933 90.6487 225.089 89.2968 224.533 90.4803C222.106 98.6887 219.154 106.351 214.795 114.136C222.83 113.942 221.622 112.417 223.855 107.652ZM193.217 105.698C193.839 105.606 193.89 103.974 193.595 103.52C192.753 102.229 187.262 104.892 186.013 105.657C188.639 105.897 190.78 106.065 193.217 105.698ZM193.513 109.881C191.759 108.968 189.913 108.892 188.052 109.555C191.29 110.443 190.872 111.529 193.38 111.305C193.707 111.274 194.028 110.152 193.513 109.881ZM205.306 123.008C207.575 118.789 210.282 114.947 212.235 110.223C210.619 109.244 209.018 110.351 207.463 110.861C199.392 113.498 198.102 124.839 198.438 132.302C200.029 132.665 204.582 124.354 205.306 123.008ZM192.509 117.947C190.734 117.207 189.093 116.442 187.033 116.626L190.484 118.6C191.193 119.008 192.192 119.054 192.509 117.947ZM189.179 121.462C186.971 120.1 184.81 118.865 181.898 118.656C184.126 120.176 186.39 121.217 189.179 121.462ZM189.995 128.67L192.249 129.298C196.169 133.012 194.436 125.849 195.828 121.11C195.914 120.809 195.537 120.319 195.394 120.186C194.523 119.391 191.02 126.477 187.481 127.364C180.165 129.201 174.485 121.314 170.166 123.36C173.532 129.844 183.484 128.068 189.995 128.67ZM176.402 120.788C179.237 122.798 182.031 124.12 185.09 123.895C181.368 122.732 180.43 120.059 176.402 120.788ZM194.757 142.602C190.556 143.531 177.121 140.506 172.43 139.424C171.686 138.746 170.579 138.868 169.702 138.409C169.31 138.205 168.683 138.516 168.265 138.373C162.794 135.787 162.544 137.404 157.659 131.716C156.941 132.119 156.002 134.124 156.711 134.619C160.26 137.088 164.323 138.506 168.234 139.842C169.575 140.302 170.865 140.955 172.293 141.067C172.109 141.414 172.649 141.444 172.874 141.495C173.032 141.531 173.22 141.521 173.384 141.511C173.358 142.031 174.041 141.96 174.408 142C174.572 142.021 174.755 142.031 174.918 142.011C175.025 142.669 175.943 142.439 176.433 142.521C176.596 142.546 176.779 142.536 176.942 142.536C177.126 143.23 177.957 142.903 178.462 143.036C182.464 144.118 186.497 145.648 190.642 145.582C201.533 149.239 209.854 134.664 211.583 125.135C211.807 123.895 211.695 122.65 210.879 121.574L203.894 132.808C202.446 135.139 201.166 137.317 199.361 139.45C197.979 141.077 197.102 142.96 194.762 142.597H194.757V142.602ZM169.356 134.812C169.636 134.894 169.962 134.828 170.253 134.884C170.426 134.92 170.605 134.95 170.783 134.955C170.947 134.955 171.135 135.001 171.293 134.971C171.518 135.649 172.262 135.884 172.93 135.858C173.18 135.848 173.598 135.991 173.817 135.879L179.038 137.343C179.635 137.511 180.384 137.322 180.986 137.44L182.077 137.909C182.342 138.021 182.699 137.899 182.984 137.919L183.545 137.96C185.559 138.113 187.639 139.138 189.715 138.904C191.331 139.684 193.472 139.812 195.405 139.016L193.36 136.792C191.489 134.751 190.372 131.772 187.135 131.762L179.951 131.746L178.492 131.706C178.38 131.042 177.412 131.338 176.922 131.303C176.779 131.292 176.54 131.236 176.412 131.303C167.174 128.589 168.122 125.39 166.251 124.176C163.763 122.564 160.081 124.257 158.394 126.798C163.248 133.277 162.35 132.731 169.356 134.802V134.812Z" fill="#3B4AF4"/>
<path id="Vector_4" d="M47.0149 40.4243C46.4948 40.5314 45.8677 40.4549 45.5975 40.7508C46.4183 43.2352 45.7912 51.5966 49.8905 49.7907L50.227 44.3525C50.2576 43.8933 50.7879 43.6127 50.7267 43.3373C50.5686 42.5669 47.8867 41.7558 50.0741 41.6232C51.6087 42.1027 52.7967 42.7659 54.1122 44.0872C54.9738 44.9544 56.7125 45.2248 56.6615 46.6022C55.4939 46.5308 54.7291 45.5819 53.3627 45.8013L53.9592 50.4182C55.1472 49.6376 54.1733 48.301 55.0248 47.6378C55.5704 47.2093 56.6309 47.3623 56.6615 46.6073C59.3434 46.7706 61.9691 47.5511 64.7887 48.0765C66.1653 48.3316 67.5419 47.2195 68.8982 47.3317C71.4526 47.546 73.4003 49.2346 75.6997 50.107C80.0438 51.7548 85.5605 45.8676 87.0442 48.2194C88.2067 50.061 89.1856 50.9844 91.0211 51.2803C93.4073 51.6629 93.8049 49.9233 95.2632 48.5867L103.197 41.3273C106.026 38.7357 109.493 37.4144 111.936 34.0882C112.833 32.8639 114.99 32.517 115.862 30.9712C116.219 30.3437 117.299 30.456 117.804 30.5223C118.385 30.5988 118.681 31.3232 118.956 31.7671L109.264 40.6692L100.372 48.653C98.669 50.1784 92.3009 55.836 91.5514 56.9328C90.6897 58.1929 92.2652 60.0804 92.3875 61.57L86.5037 63.2076C88.7012 66.4777 90.083 73.4872 88.7114 77.1041C91.1486 80.2722 95.7577 82.124 99.1432 79.961C98.8373 75.2727 112.991 64.1922 116.581 61.7639L132.743 50.8467C133.6 50.2702 134.783 50.2243 135.109 49.2754C135.756 49.6427 136.95 49.76 137.072 50.6324C137.23 51.7547 137.123 52.6322 136.042 53.1883C133.564 54.4585 130.087 58.0092 127.002 59.958C121.006 63.7484 114.98 67.3347 109.871 72.4209C108.413 73.8749 107.179 75.4359 105.557 76.7062C103.039 78.6805 102.258 81.3843 103.503 84.4299C103.992 85.6287 104.415 88.6896 102.967 89.1794C100.963 89.8579 99.5613 89.7558 98.2102 91.4751C97.0732 92.9239 96.084 95.2502 94.687 96.347C92.9433 97.7193 91.7808 99.1375 90.2206 100.709C88.0384 102.908 85.3922 104.627 84.8773 108.137C84.4745 110.902 82.6594 112.83 80.7117 113.886C77.9686 115.381 75.7099 113.784 73.2371 113.177C70.4787 112.498 68.7656 111.05 66.563 109.795C62.943 107.728 59.9348 105.866 57.2937 102.571C55.3052 100.086 52.5163 98.4131 51.7209 94.9288C50.9714 91.6434 50.4157 87.1541 47.5808 84.8686C41.5135 79.9763 38.128 80.8384 31.2652 69.6916L27.5177 63.6106C25.1979 59.8406 24.6217 55.4737 22.103 51.6578C20.9201 49.8672 20.6448 47.2807 19.8953 45.2248C18.5901 41.6385 19.8953 37.7613 19.9259 33.9505C19.9565 30.8131 20.1502 27.0839 22.929 25.2371C27.3036 22.3344 32.5858 23.8597 36.5984 26.3799C38.6123 27.645 39.061 28.4409 39.6321 30.7774C40.3918 33.8995 46.3113 37.7052 47.0047 40.4447L47.0149 40.4243ZM29.1697 38.5265C29.1799 38.6643 29.1391 38.8479 29.1901 38.9704C30.011 40.914 31.7292 42.4292 32.8254 44.4545L36.6086 51.4282C40.5294 58.6622 43.8129 68.6254 52.0931 73.7116C53.0975 75.8593 59.9246 75.4818 68.0212 87.7714C70.5909 91.674 78.662 100.964 83.6281 101.816C87.5336 98.5815 91.5157 95.546 94.0497 91.2098C95.151 89.3273 95.8087 87.5112 98.3376 86.6898C98.7659 86.5521 99.6429 85.6798 99.3675 85.2053C98.2611 83.3127 95.6609 86.1695 89.5017 82.1546C87.6662 80.9557 85.0863 79.9252 84.2756 77.6296C83.6179 75.7624 86.5292 74.0636 83.7301 67.0184C81.4765 66.5236 79.2637 65.1003 77.0254 65.1309C75.4448 66.0747 74.0325 67.2276 72.0695 65.8553C70.9427 65.0646 69.3367 64.5034 68.2608 63.6055C64.493 60.4681 63.0297 66.5644 54.7597 58.3102C53.7553 57.3052 52.0421 57.749 50.8694 57.0501C49.7273 51.2803 46.2552 54.3667 43.9557 51.9435C43.5274 51.4895 42.5893 41.919 41.3962 38.9193C40.2031 35.9197 37.5416 33.9505 35.9866 31.1498C34.3397 28.1909 30.7146 26.8339 27.6554 26.2523C26.3655 26.0075 25.0449 26.2064 24.2801 27.3287C21.8736 30.8692 26.6459 36.4247 29.1697 38.5317V38.5265ZM81.247 105.096C80.1253 103.719 78.4989 103.591 77.4333 102.821C66.0633 94.6023 62.6473 83.379 55.1472 79.7977C49.5438 77.1245 45.0723 73.3596 41.7786 68.1663C37.0777 60.7538 30.1945 44.781 25.9933 40.659L23.2247 37.9348C20.9915 44.4341 31.6272 64.5595 35.3135 70.4773C40.6977 79.1192 57.2835 81.5067 54.051 94.4237C58.2319 99.7956 63.1877 103.8 68.7452 107.504C71.5648 109.386 74.8177 111.162 78.4428 110.636C80.4568 110.346 82.4962 106.642 81.2419 105.101H81.247V105.096ZM58.5938 50.0458C57.1764 51.7854 56.3556 55.2493 58.1911 56.9889C60.4243 59.1009 59.7257 51.8415 58.5938 50.0458ZM62.4382 51.5201C61.9742 53.5148 62.2802 56.1216 62.7237 58.2643C62.4382 58.9734 62.4841 59.0499 62.6982 59.1672C65.375 60.6058 64.8193 49.7651 62.4382 51.5201ZM80.7576 62.3914C79.7735 58.3459 85.3412 61.116 87.0493 58.2438C87.7121 57.1317 86.519 55.7543 86.4272 54.6881C86.361 53.9382 86.7332 53.1219 86.4272 52.7597C85.9378 52.1833 85.0251 52.0914 84.3062 52.3669L76.9183 55.234C75.608 55.7441 74.3384 54.9993 73.13 54.5606C73.0485 55.9686 72.7782 58.7795 74.0121 59.8304C75.8782 61.4119 78.7283 61.4425 80.7525 62.3914H80.7576ZM69.8057 59.7029C70.3666 57.999 69.0052 53.3209 68.1232 53.3209C66.5069 53.3209 68.1232 56.4124 66.8383 59.0397C67.6133 59.7896 68.7656 60.1518 69.8057 59.7029Z" fill="#3B4AF4"/>
<path id="Vector_5" d="M135.113 49.2653C134.787 50.2141 133.604 50.255 132.748 50.8365L116.585 61.7537C112.99 64.182 98.8417 75.2625 99.1476 79.9508C95.757 82.1138 91.1479 80.262 88.7158 77.094C90.0873 73.4821 88.7056 66.4675 86.5081 63.1975L92.3919 61.5599C92.2747 60.0702 90.6941 58.1878 91.5558 56.9226C92.3053 55.8258 98.6785 50.1733 100.376 48.6429L109.268 40.659L118.961 31.7569C120.633 32.2007 121.582 34.2107 122.953 35.3279C125.044 37.0369 126.048 38.9194 127.46 41.1182C130.239 45.4391 132.651 45.9289 135.113 49.255V49.2653Z" fill="#FAE64D"/>
<path id="Vector_6" d="M175.836 40.1183C176.315 49.5867 192.07 68.3245 198.785 75.1707C200.534 76.9511 204.541 85.8175 201.212 88.2918C199.596 88.8631 196.807 87.751 195.104 88.7764C194.12 89.3682 192.488 89.9855 191.978 88.6234L190.622 84.9605C192.284 84.7615 193.294 86.3991 194.38 87.7612C194.625 87.7918 194.808 87.4143 195.252 87.3021C196.608 87.8632 199.3 88.4703 200.213 86.797C200.621 86.0471 200.192 84.685 200.457 83.879C200.794 82.8638 199.065 81.6802 199.29 80.6803C199.601 79.3131 198.53 78.8999 198.27 78.0428C197.653 76.0022 196.649 75.0483 195.323 73.5535L192.04 69.8549C191.356 69.0897 191.591 67.2583 189.577 68.0337C189.353 68.1204 188.873 68.1459 188.644 67.8603C188.516 67.7021 188.573 67.2736 188.843 67.1001C189.016 66.9879 189.307 67.5491 189.98 67.5185C188.924 64.7688 186.038 63.1107 184.59 60.8559C183.673 59.4223 182.52 58.3153 181.48 57.04C181.873 57.5195 178.712 51.2549 176.326 50.1734C176.683 49.6836 177.192 49.8009 177.33 49.551C177.529 49.1887 177.35 48.4796 176.851 48.2093L175.724 47.6073C175.393 47.4338 175.928 46.7604 175.795 46.286C175.336 44.6127 174.062 43.725 173.215 42.1028C170.115 42.9853 166.97 43.4547 164.053 44.9698C157.813 48.2042 158.863 45.8932 154.335 48.8112C154.004 49.0357 153.53 48.8112 153.29 48.8878C152.954 49 152.209 49.6785 152.612 50.1223C152.852 50.3876 153.397 49.9132 153.652 49.9897C154.121 50.1325 153.902 50.8365 153.698 51.5456C157.665 52.7445 156.512 55.7901 159.398 58.0654C161.402 59.6468 163.135 61.8609 164.726 64.029C166.103 65.9064 168.066 67.2328 168.616 69.6509C172.048 69.8652 170.62 73.4515 173.409 74.6912C174.612 75.2268 174.531 77.1042 175.107 78.1449C175.887 77.7827 176.769 77.5939 176.902 77.9918L177.478 79.6958C178.003 81.2568 180.761 82.2057 181.169 84.2871C181.516 83.175 182 83.2158 182.128 84.1749C181.542 87.8224 188.134 83.4913 190.632 84.9554C186.553 84.9962 180.308 90.6946 177.83 84.486C173.272 80.0834 169.463 75.2574 165.506 70.3141L154.876 57.0247L148.854 49.7958C151.327 47.0665 155.258 47.4287 158.435 46.0921C162.223 44.4954 165.756 43.0363 169.769 42.0313C171.905 41.4957 173.695 39.8479 175.841 40.1234H175.836V40.1183Z" fill="#F5E44D"/>
<path id="Vector_7" d="M47.0149 40.4244C48.2283 40.1795 49.1155 41.3223 50.074 41.6232C47.8918 41.7559 50.5686 42.567 50.7267 43.3373C50.7828 43.6128 50.2525 43.8934 50.227 44.3525L49.8905 49.7908C45.7963 51.5967 46.4183 43.2353 45.5975 40.7509C45.8677 40.4601 46.4948 40.5315 47.0149 40.4244Z" fill="#F5E44D"/>
<path id="Vector_8" d="M199.387 91.8781L200.875 91.9444C202.711 92.021 204.511 91.8322 206.637 90.9395C208.182 95.1329 207.346 100.408 209.64 105.632C201.931 108.009 205.423 106.606 198.856 110.361C198.647 105.377 197.679 100.847 196.858 96.0665C196.557 94.3166 197.883 92.0669 199.387 91.8781Z" fill="#FAE64D"/>
<path id="Vector_9" d="M176.412 131.308C176.535 131.241 176.78 131.297 176.922 131.308C177.142 131.956 177.962 131.7 178.493 131.711L179.951 131.751C179.803 132.175 180.496 132.262 180.991 132.267L187.706 132.359C188.802 132.374 189.837 133.277 190.928 133.532C191.107 135.669 192.05 136.858 193.36 138.195C192.121 139.256 190.887 138.771 189.71 138.904C187.635 139.138 185.554 138.113 183.54 137.96C183.647 137.317 182.934 137.22 182.979 137.919C182.689 137.899 182.337 138.021 182.072 137.909C182.286 137.588 181.883 137.445 181.521 137.134C181.338 136.975 181.129 137.174 180.981 137.44C180.374 137.322 179.63 137.511 179.033 137.343C180.338 136.608 174.613 135.465 173.812 135.879C173.593 135.991 173.18 135.848 172.925 135.858C173.216 135.465 172.838 135.011 172.507 134.894C172.084 134.741 171.666 134.894 171.288 134.971C171.13 135.001 170.942 134.96 170.778 134.955C170.86 134.318 170.238 134.144 170.248 134.884C169.958 134.828 169.631 134.894 169.351 134.812C169.407 134.312 169.264 133.904 168.877 133.466C168.571 133.119 167.648 133.302 167.215 132.95C165.792 131.813 164.716 130.349 163.039 129.379C163.865 127.9 164.935 127.283 165.42 125.65C166.144 128.711 168.331 129.032 171.462 130.134C173.124 130.716 174.842 132.144 176.407 131.308H176.412Z" fill="#FAE64D"/>
<path id="Vector_10" d="M223.856 107.652C221.622 112.417 222.831 113.942 214.795 114.136C219.155 106.351 222.107 98.6886 224.534 90.4803C225.089 89.2967 228.934 90.6486 228.801 92.3015C228.363 97.7601 226.262 102.52 223.856 107.652Z" fill="#F5E44D"/>
<path id="Vector_11" d="M205.306 123.007C204.582 124.354 200.034 132.665 198.439 132.302C198.102 124.839 199.392 113.498 207.463 110.861C209.023 110.351 210.619 109.244 212.235 110.223C210.278 114.952 207.57 118.794 205.306 123.007Z" fill="#F5E44D"/>
<path id="Vector_12" d="M220.005 87.1286C221.53 90.1997 216.997 100.505 215.371 103.948C213.398 102.938 213.887 101.285 213.54 99.7804C212.98 97.347 212.189 95.1329 212.663 92.5363C211.868 88.7662 211.679 84.8024 213.041 81.2007C214.004 78.6448 219.185 85.4758 220 87.1286H220.005Z" fill="#F5E44D"/>
<path id="Vector_13" d="M205.026 75.7114C206.092 76.3236 208.325 77.048 208.677 78.4713C209.222 81.5424 207.698 84.7819 208.075 87.955L209.793 102.443C209.916 103.464 211.328 105.106 210.278 105.984C206.739 108.953 203.884 105.943 197.353 114.651C197.546 107.759 196.868 101.505 195.339 95.0869C195.094 94.0615 196.211 92.8015 196.705 92.2505C197.368 91.5108 198.525 91.3883 199.387 91.8781C197.883 92.072 196.557 94.3166 196.858 96.0664C197.679 100.847 198.648 105.372 198.857 110.361C205.429 106.606 201.936 108.014 209.64 105.632C207.341 100.403 208.177 95.1277 206.637 90.9394C204.511 91.8322 202.711 92.0209 200.876 91.9444C201.284 91.7505 201.61 91.5771 201.855 91.4241C204.593 92.1944 206.948 87.2357 206.148 83.5422C205.689 81.4302 205.383 79.1039 203.864 77.7673C203.833 77.4357 203.017 76.8593 203.017 76.6042C203.017 76.3491 203.828 76.1093 203.899 75.7726L204.409 75.7471L205.026 75.7216V75.7114Z" fill="#F5E44D"/>
<path id="Vector_14" d="M190.638 145.587C186.492 145.653 182.459 144.123 178.457 143.041C178.345 142.388 177.442 142.531 176.938 142.541C176.774 142.541 176.591 142.556 176.428 142.526C176.198 141.893 175.474 141.949 174.913 142.016C174.75 142.036 174.567 142.026 174.404 142.006C174.246 141.577 173.792 141.49 173.379 141.516C173.216 141.526 173.032 141.536 172.869 141.5C172.736 141.317 172.532 141.092 172.288 141.072C170.86 140.96 169.57 140.307 168.229 139.848L168.26 138.373C168.683 138.516 169.305 138.205 169.698 138.409C169.958 139.781 171.482 139.205 172.425 139.424C177.116 140.506 190.551 143.531 194.752 142.602C196.486 143.623 199.239 142.755 200.06 140.715C200.789 138.914 202.227 138.154 203.308 136.7C203.542 136.384 205.719 132.022 206.086 132.338C206.377 132.588 207.234 132.777 207.397 133.083C207.56 133.389 206.678 134.052 206.535 134.42C205.357 137.455 203.088 139.71 200.901 141.919C199.015 143.827 197.261 145.475 194.181 145.526L190.633 145.582H190.638V145.587Z" fill="#FAE64D"/>
<path id="Vector_15" d="M190.637 145.587L194.186 145.531C197.265 145.48 199.019 143.832 200.906 141.924C203.093 139.715 205.362 137.46 206.54 134.425C206.682 134.057 207.564 133.389 207.401 133.088C207.238 132.787 206.376 132.593 206.091 132.343C205.724 132.022 203.547 136.389 203.312 136.705C202.231 138.164 200.793 138.919 200.064 140.72C199.238 142.761 196.49 143.628 194.757 142.607C197.097 142.965 197.979 141.087 199.356 139.46C201.161 137.327 202.44 135.149 203.888 132.818L210.873 121.584C211.694 122.661 211.806 123.905 211.577 125.145C209.843 134.675 201.528 149.25 190.637 145.592V145.587Z" fill="#F5E44D"/>
<path id="Vector_16" d="M192.249 129.298C193.391 128.803 193.024 127.487 193.013 125.941C193.248 125.533 188.588 128.18 189.995 128.675C183.484 128.073 173.527 129.849 170.167 123.365C174.485 121.319 180.165 129.206 187.481 127.369C191.02 126.482 194.523 119.401 195.395 120.191C195.537 120.324 195.915 120.809 195.828 121.115C194.436 125.854 196.17 133.017 192.249 129.303V129.298Z" fill="#F5E44D"/>
<path id="Vector_17" d="M176.412 131.308C174.847 132.139 173.129 130.716 171.466 130.134C168.336 129.037 166.154 128.711 165.425 125.65C164.935 127.283 163.87 127.9 163.044 129.379C164.721 130.349 165.797 131.813 167.219 132.95C167.658 133.297 168.576 133.119 168.881 133.466C169.269 133.904 169.412 134.312 169.356 134.812C162.35 132.741 163.247 133.287 158.394 126.808C160.081 124.268 163.762 122.574 166.251 124.186C168.122 125.4 167.179 128.599 176.412 131.313V131.308Z" fill="#F5E44D"/>
<path id="Vector_18" d="M190.602 96.1328C190.459 96.1532 190.306 96.1583 190.163 96.143C187.838 95.893 185.6 96.9337 183.219 97.7448L180.787 94.3115C180.496 93.8983 179.925 93.5922 179.701 93.1331C179.558 92.8474 179.645 92.4393 179.951 92.0822L180.461 92.0567C183.035 91.9291 185.213 90.4446 187.971 90.0416C189.307 92.0005 190.459 94.0156 190.602 96.1379V96.1328Z" fill="#FAE64D"/>
<path id="Vector_19" d="M168.27 138.373L168.239 139.848C164.329 138.506 160.26 137.093 156.716 134.624C156.008 134.129 156.946 132.119 157.665 131.721C162.549 137.409 162.799 135.792 168.27 138.378V138.373Z" fill="#F5E44D"/>
<path id="Vector_20" d="M190.601 96.1328C190.454 94.0105 189.306 91.9954 187.971 90.0365C185.212 90.4446 183.035 91.924 180.46 92.0516C182.23 91.2557 183.968 90.1028 185.895 89.358C190.54 87.5623 190.27 94.1636 192.192 95.8879C191.749 96.3113 191.142 96.0562 190.607 96.1328H190.601Z" fill="#FAE64D"/>
<path id="Vector_21" d="M201.855 91.419C207.963 86.496 204.195 81.3486 203.864 77.7623C205.388 79.0989 205.694 81.4302 206.148 83.5372C206.949 87.2307 204.593 92.1893 201.855 91.419Z" fill="#FAE64D"/>
<path id="Vector_22" d="M193.217 105.698C190.78 106.065 188.639 105.897 186.013 105.657C187.257 104.897 192.753 102.234 193.594 103.52C193.89 103.974 193.839 105.601 193.217 105.698Z" fill="#F5E44D"/>
<path id="Vector_23" d="M176.402 120.788C180.425 120.059 181.363 122.732 185.09 123.895C182.031 124.12 179.242 122.803 176.402 120.788Z" fill="#F5E44D"/>
<path id="Vector_24" d="M179.951 92.0771C179.646 92.4342 179.559 92.8423 179.702 93.128C179.926 93.582 180.497 93.8932 180.788 94.3064L183.22 97.7398C185.596 96.9286 187.839 95.8879 190.164 96.1379C190.195 96.7195 182.618 99.3314 182.042 98.2652C180.925 96.2195 180.548 93.9085 178.157 92.6178C178.809 91.6435 179.406 92.1026 179.951 92.072V92.0771Z" fill="#FAE64D"/>
<path id="Vector_25" d="M193.513 109.881C194.028 110.147 193.707 111.274 193.38 111.305C190.872 111.529 191.29 110.443 188.052 109.555C189.913 108.892 191.759 108.968 193.513 109.881Z" fill="#F5E44D"/>
<path id="Vector_26" d="M189.18 121.462C186.386 121.212 184.127 120.176 181.899 118.656C184.816 118.87 186.972 120.1 189.18 121.462Z" fill="#F5E44D"/>
<path id="Vector_27" d="M189.715 138.909C190.893 138.776 192.127 139.261 193.366 138.2C192.055 136.863 191.112 135.675 190.934 133.537C189.842 133.282 188.807 132.379 187.711 132.364L180.996 132.272C180.502 132.267 179.803 132.18 179.956 131.757L187.14 131.772C190.373 131.777 191.489 134.761 193.366 136.802L195.41 139.026C193.478 139.822 191.336 139.695 189.72 138.914H189.715V138.909Z" fill="#F5E44D"/>
<path id="Vector_28" d="M192.249 129.298L189.995 128.67C188.588 128.175 193.248 125.528 193.013 125.936C193.029 127.487 193.391 128.803 192.249 129.292V129.298Z" fill="#FAE64D"/>
<path id="Vector_29" d="M192.509 117.947C192.193 119.049 191.194 119.003 190.485 118.6L187.033 116.625C189.093 116.442 190.735 117.207 192.509 117.947Z" fill="#F5E44D"/>
<path id="Vector_30" d="M179.033 137.343L173.812 135.879C174.618 135.465 180.339 136.603 179.033 137.343Z" fill="#F5E44D"/>
<path id="Vector_31" d="M172.925 135.858C172.257 135.884 171.512 135.649 171.288 134.971C171.665 134.899 172.083 134.741 172.507 134.894C172.838 135.011 173.215 135.465 172.925 135.858Z" fill="#F5E44D"/>
<path id="Vector_32" d="M172.435 139.424C171.491 139.205 169.967 139.781 169.707 138.409C170.584 138.868 171.69 138.746 172.435 139.424Z" fill="#F5E44D"/>
<path id="Vector_33" d="M178.492 131.716C177.962 131.7 177.141 131.961 176.922 131.313C177.412 131.348 178.38 131.053 178.492 131.716Z" fill="#F5E44D"/>
<path id="Vector_34" d="M203.899 75.7675C203.828 76.1042 203.476 76.4103 203.461 76.7572C203.16 76.9358 202.956 76.6501 202.91 76.4613C202.823 76.1093 202.925 75.8083 203.175 75.7216C203.399 75.6451 203.654 75.7165 203.899 75.7675Z" fill="#FAE64D"/>
<path id="Vector_35" d="M176.433 142.526C175.938 142.444 175.02 142.674 174.918 142.016C175.484 141.949 176.203 141.898 176.433 142.526Z" fill="#F5E44D"/>
<path id="Vector_36" d="M178.462 143.041C177.957 142.903 177.126 143.235 176.943 142.541C177.442 142.531 178.35 142.388 178.462 143.041Z" fill="#F5E44D"/>
<path id="Vector_37" d="M174.409 142.005C174.042 141.96 173.363 142.031 173.384 141.516C173.797 141.49 174.251 141.582 174.409 142.005Z" fill="#F5E44D"/>
<path id="Vector_38" d="M205.026 75.7115L204.409 75.737C204.429 75.135 204.853 75.1401 205.026 75.7115Z" fill="#3B4AF4"/>
<path id="Vector_39" d="M170.785 134.956C170.611 134.956 170.427 134.92 170.254 134.885C170.238 134.144 170.862 134.317 170.785 134.956Z" fill="#F5E44D"/>
<path id="Vector_40" d="M182.077 137.909L180.986 137.44C181.129 137.174 181.343 136.975 181.527 137.134C181.889 137.445 182.292 137.593 182.077 137.909Z" fill="#F5E44D"/>
<path id="Vector_41" d="M183.545 137.965L182.984 137.924C182.939 137.225 183.647 137.322 183.545 137.965Z" fill="#F5E44D"/>
<path id="Vector_42" d="M172.874 141.5C172.65 141.455 172.109 141.419 172.293 141.072C172.538 141.092 172.741 141.317 172.874 141.5Z" fill="#F5E44D"/>
<path id="Vector_43" d="M52.0977 73.7117C51.7714 73.0179 50.8179 72.6965 50.1908 72.0078C41.0796 61.9935 38.9585 50.9692 31.229 40.5876C30.6427 39.802 30.036 38.9755 29.1947 38.9704C29.1437 38.8429 29.1794 38.6643 29.1743 38.5266C29.0621 36.7564 23.6117 32.9149 25.3605 28.1603C25.7429 27.1196 27.2062 27.0176 27.6651 26.2524C30.7294 26.834 34.3494 28.1909 35.9962 31.1498C37.5513 33.9454 40.2383 35.9962 41.4059 38.9194C42.5735 41.8426 43.5371 51.4895 43.9654 51.9436C46.2649 54.3719 49.737 51.2804 50.8791 57.0502C52.0518 57.7491 53.7649 57.3052 54.7694 58.3102C63.0393 66.5645 64.5027 60.4733 68.2705 63.6056C69.3514 64.5035 70.9524 65.0697 72.0792 65.8554C74.0422 67.2277 75.4545 66.0747 77.0351 65.1309C79.2734 65.1003 81.4862 66.5237 83.7398 67.0185C86.5338 74.0586 83.6276 75.7625 84.2853 77.6296C85.096 79.9253 87.6759 80.9558 89.5114 82.1547C95.6705 86.1695 98.2708 83.3178 99.3772 85.2054C99.6526 85.6798 98.7807 86.5522 98.3473 86.6899C95.8184 87.5112 95.1607 89.3274 94.0594 91.2098C91.5254 95.5461 87.5433 98.5815 83.6378 101.816C78.6717 100.964 70.6006 91.6741 68.0309 87.7714C59.9394 75.4819 53.1072 75.8594 52.1028 73.7117H52.0977Z" fill="#FAE64D"/>
<path id="Vector_44" d="M81.2465 105.096C82.5007 106.637 80.4613 110.335 78.4473 110.631C74.8171 111.157 71.5693 109.381 68.7498 107.499C63.1923 103.795 58.2364 99.7905 54.0555 94.4186C57.2881 81.5067 40.7022 79.1192 35.3181 70.4722C31.6318 64.5595 20.996 44.4341 23.2292 37.9297L25.9978 40.6539C30.194 44.781 37.0822 60.7538 41.7831 68.1612C45.0768 73.3545 49.5483 77.1194 55.1517 79.7926C62.6518 83.3739 66.0679 94.5972 77.4378 102.816C78.4983 103.586 80.1299 103.714 81.2516 105.091L81.2465 105.096Z" fill="#FAE64D"/>
<path id="Vector_45" d="M80.7573 62.3914C78.7331 61.4426 75.883 61.4171 74.0169 59.8305C72.783 58.7796 73.0533 55.9687 73.1348 54.5606C74.3432 54.9943 75.6128 55.7442 76.9231 55.234L84.311 52.367C85.0299 52.0864 85.9426 52.1782 86.432 52.7598C86.738 53.122 86.3658 53.9383 86.432 54.6882C86.5238 55.7595 87.7169 57.1318 87.0541 58.2439C85.346 61.1161 79.7732 58.3459 80.7624 62.3914H80.7573Z" fill="#FAE64D"/>
<path id="Vector_46" d="M52.0979 73.7116C43.8178 68.6254 40.5343 58.6622 36.6134 51.4283L32.8302 44.4545C31.734 42.4292 30.0107 40.9141 29.1949 38.9704C30.0362 38.9755 30.6429 39.802 31.2293 40.5876C38.9588 50.964 41.0798 61.9935 50.1911 72.0078C50.8182 72.6965 51.7716 73.0178 52.0979 73.7116Z" fill="#F5E44D"/>
<path id="Vector_47" d="M69.8053 59.703C68.7652 60.1519 67.6129 59.7897 66.8379 59.0397C68.1176 56.4125 66.5065 53.3261 68.1227 53.321C69.0048 53.321 70.3712 57.9991 69.8053 59.703Z" fill="#F5E44D"/>
<path id="Vector_48" d="M62.4372 51.5202C64.8183 49.7652 65.374 60.6059 62.6972 59.1673C62.4831 59.05 62.4372 58.9735 62.7227 58.2644C62.274 56.1217 61.9732 53.5149 62.4372 51.5202Z" fill="#FAE953"/>
<path id="Vector_49" d="M58.5934 50.0458C59.7253 51.8415 60.4238 59.101 58.1906 56.9889C56.35 55.2493 57.1708 51.7854 58.5934 50.0458Z" fill="#FAE64D"/>
<path id="Vector_50" d="M27.6557 26.2473C27.1968 27.0125 25.7335 27.1145 25.3511 28.1552C23.6023 32.9098 29.0527 36.7513 29.1649 38.5215C26.6462 36.4146 21.8687 30.859 24.2753 27.3186C25.0401 26.1962 26.3606 26.0024 27.6506 26.2422H27.6557V26.2473Z" fill="#F5E44D"/>
<path id="Vector_51" d="M56.6608 46.6074C56.6302 47.3624 55.5697 47.2094 55.0241 47.6379C54.1727 48.3011 55.1465 49.6377 53.9585 50.4182L53.362 45.8014C54.7284 45.582 55.4932 46.536 56.6608 46.6023V46.6074Z" fill="#F5E44D"/>
<path id="Vector_52" d="M190.633 84.9605C188.14 83.4964 181.542 87.8327 182.128 84.18C182.001 83.2209 181.516 83.1852 181.17 84.2922C180.757 82.2108 178.004 81.2568 177.478 79.7008L176.902 77.997C176.77 77.599 175.888 77.7878 175.108 78.15C174.531 77.1093 174.608 75.2268 173.41 74.6963C170.621 73.4566 172.048 69.8753 168.617 69.656C168.066 67.243 166.103 65.9166 164.727 64.0341C163.136 61.8609 161.402 59.652 159.399 58.0705C156.513 55.7901 157.665 52.7445 153.698 51.5508C153.902 50.8416 154.127 50.1325 153.653 49.9948C153.398 49.9183 152.857 50.3927 152.612 50.1274C152.21 49.6836 152.954 49.0051 153.291 48.8929C153.53 48.8113 154.004 49.0408 154.336 48.8164C158.868 45.8983 157.818 48.2144 164.054 44.9749C166.97 43.4598 170.116 42.9904 173.216 42.1079C174.062 43.7301 175.337 44.6178 175.796 46.2911C175.928 46.7655 175.393 47.439 175.724 47.6124L176.851 48.2144C177.351 48.4797 177.529 49.1939 177.331 49.5561C177.198 49.8061 176.688 49.6836 176.326 50.1784C178.717 51.2549 181.873 57.5195 181.481 57.0451C182.521 58.3205 183.673 59.4275 184.591 60.861C186.034 63.1159 188.92 64.7738 189.98 67.5236C189.307 67.5542 189.017 66.993 188.843 67.1052C188.573 67.2787 188.517 67.7072 188.644 67.8654C188.879 68.1511 189.353 68.1255 189.577 68.0388C191.591 67.2634 191.357 69.0948 192.04 69.8601L195.324 73.5586C196.644 75.0483 197.654 76.0023 198.271 78.048C198.531 78.905 199.601 79.3234 199.29 80.6855C199.061 81.6854 200.794 82.8689 200.458 83.8841C200.193 84.6901 200.621 86.0522 200.213 86.8022C199.3 88.4755 196.608 87.8684 195.252 87.3072C194.809 87.4194 194.63 87.7969 194.38 87.7663C193.294 86.4042 192.29 84.7717 190.623 84.9656H190.633V84.9605Z" fill="#FAE64D"/>
</g>
</svg>
