<svg preserveAspectRatio="none" overflow="visible" style="display: block;" width="215.838" height="127.811" viewBox="0 0 215.838 127.811" fill="none" xmlns="http://www.w3.org/2000/svg">
<g id="Group">
<path id="Vector" d="M53.2429 117.128C57.1377 120.107 54.9898 124.51 55.5995 127.785C53.7373 128.137 50.2985 124.768 50.1282 121.096C52.4464 120.36 52.3365 117.914 53.2429 117.128Z" fill="#AAFF00"/>
<g id="Group_2">
<path id="Vector_2" d="M15.6958 88.6675C17.8986 95.6535 10.3124 94.6037 13.872 100.413C15.4046 102.909 16.9263 105.388 18.404 106.652L19.5905 101.809C28.0282 100.853 20.4969 111.203 28.1875 114.687C29.0994 113.912 29.5499 113.517 29.4949 112.297C30.231 107.844 28.7643 106.575 25.8199 104.041C32.2196 99.7703 38.2622 118.689 41.9372 116.76C45.9528 112.005 37.5316 102.777 36.8614 98.2753C42.0581 109.026 55.3958 112.714 63.2567 109.73C68.0908 101.76 81.0605 108.317 86.2461 97.5332C90.5144 97.1595 96.3758 97.2914 101.545 95.9118C101.814 96.4779 102.078 97.0221 102.352 97.5937C102.248 97.0825 102.072 96.5384 101.787 95.9393C109.005 102.057 111.697 86.8318 118.382 98.66L118.717 97.187C122.513 94.2904 120.832 101.617 124.441 102.936C127.583 99.479 137.531 107.141 134.653 95.9173C135.301 96.4724 135.136 97.2035 135.79 97.7586L138.108 94.4937C137.141 91.9104 136.35 88.6016 134.565 86.1832C135.384 86.0128 134.598 82.693 136.07 83.0887C138.713 81.8355 138.817 88.085 140.773 89.7614C146.057 83.7978 153.424 79.4556 162.054 81.9674C164.114 86.4195 166.723 87.4968 169.14 87.233C170.359 87.0901 171.497 86.6504 172.518 86.1062C173.535 85.5731 174.43 84.9355 175.078 84.4958C179.665 87.2055 181.676 83.6878 183.582 80.2141C184.521 78.4992 185.455 76.7404 186.581 75.85C187.707 74.9541 189.053 74.8606 190.816 76.3941C190.674 79.8074 188.971 80.2965 187.515 80.7747C186.048 81.2859 184.851 81.7641 185.905 85.0399L188.202 87.5023C189.031 87.7551 190.014 88.1014 190.981 88.4092C191.948 88.717 192.909 88.9534 193.733 88.9314C195.392 88.8599 196.447 87.8266 195.942 84.144C193.25 80.9341 191.921 77.6528 190.432 75.0695C190.954 73.0028 190.212 70.3591 191.338 68.897C193.228 67.3855 195.986 67.9516 197.507 72.6016C196.936 74.6572 195.167 73.3711 194.255 74.1131C195.722 79.4061 199.397 78.5982 201.1 79.8843C198.117 74.2615 197.584 69.7215 196.848 65.874C196.09 62.0375 195.123 58.7947 190.674 56.0575C191.563 54.8647 192.464 53.6445 193.382 52.4848C193.211 49.6102 192.228 47.7469 190.822 46.3728C189.416 44.9877 187.614 44.1578 185.883 43.2289C184.153 42.3055 182.5 41.3326 181.428 39.7332C180.363 38.1282 179.852 35.8582 180.522 32.357C180.126 28.9548 177.951 25.7558 179.401 22.1722C178.023 20.2539 176.721 19.7043 175.732 19.9846C174.76 20.2814 174.111 21.3972 174.007 22.7933C172.815 20.875 171.557 20.0946 170.272 19.8198C168.986 19.5504 167.706 19.8198 166.421 19.9572C163.85 20.243 161.378 20.144 159.021 14.6366C158.208 17.5497 157.033 18.8249 155.621 19.1382C154.198 19.446 152.495 18.7754 150.66 17.7641C147.035 15.7579 142.783 12.3941 139.366 12.7459C137.196 13.0097 136.147 13.6198 135.796 14.4937C135.433 15.3677 135.757 16.4999 136.367 17.8136C137.581 20.4408 139.91 23.7991 140.196 27.2234C134.972 25.5085 133.928 32.7033 133.032 36.3639C131.181 37.4412 128.083 33.9125 128.627 31.7139C109.598 28.7019 93.5907 32.8297 78.7807 38.8373C69.5191 34.5721 68.9478 47.2632 57.0603 37.3092L59.0434 38.9747C59.7904 40.1674 59.3015 41.0413 58.9829 41.8603C61.0539 43.7181 63.0974 45.6088 65.1134 47.5436C62.9656 47.4446 60.8946 47.549 59.2796 48.5219C61.5373 57.9702 49.5345 53.0894 51.3527 62.9225C40.5584 64.6043 42.6843 58.9705 31.3846 59.8335C27.847 65.4288 23.9138 72.6346 17.3932 74.4759C15.0641 75.2179 11.1583 72.2498 10.5925 70.1887C8.32929 72.1674 4.64329 74.0856 1.86369 75.2289C-5.50281 89.2612 11.032 90.1571 15.6793 88.6785L15.6958 88.6675Z" fill="#AAFF00"/>
<path id="Vector_3" d="M160.175 96.9066C162.092 102.079 165.8 102.722 167.718 104.426L168.185 102.255C170.398 99.0832 167.888 93.3175 164.548 91.1904C165.18 93.4934 164.658 94.9774 163.702 95.8513C162.73 96.7417 161.312 97.0276 160.181 96.9066H160.175Z" fill="#AAFF00"/>
<path id="Vector_4" d="M136.351 112.264L134.412 107.102L131.281 110.538C132.907 113.682 134.714 112.61 136.351 112.264Z" fill="#AAFF00"/>
<path id="Vector_5" d="M201.369 40.019C200.348 40.019 199.397 39.7331 198.486 39.3374C197.579 38.9581 196.706 38.48 195.843 38.0842C194.124 37.2982 192.421 36.8366 190.619 38.3371L194.311 47.6809C195.591 48.4504 196.909 49.3903 198.222 50.3302C199.535 51.2646 200.842 52.1935 202.117 52.9849C203.391 53.8039 204.627 54.48 205.803 54.8702C206.39 55.0681 206.967 55.1835 207.527 55.233C208.088 55.2879 208.632 55.255 209.159 55.112C209.483 49.7091 207.819 48.269 205.869 47.0159C203.94 45.7792 201.76 44.7843 201.364 40.019H201.369Z" fill="#AAFF00"/>
<path id="Vector_6" d="M187.763 24.838C188.982 21.9908 190.817 20.6332 192.822 19.8692C194.86 19.1492 197.09 19.0777 199.233 18.8689C200.315 18.7809 201.369 18.649 202.375 18.3742C203.38 18.0994 204.336 17.6762 205.242 17.0496C206.143 16.412 206.978 15.5271 207.725 14.2849C208.478 13.0427 209.142 11.4487 209.736 9.43157C209.011 6.56795 208.225 4.46834 207.396 2.98981C206.572 1.52228 205.704 0.670334 204.808 0.274594C203.023 -0.505894 201.1 0.46694 199.298 2.06639C197.48 3.65485 195.689 5.71601 193.986 7.0956C192.273 8.4697 190.542 9.02484 188.735 7.61777C187.345 9.43707 186.312 11.053 185.192 12.6745C184.093 14.3234 182.895 15.9778 181.187 17.841C180.424 20.6772 181.506 22.2767 183.033 23.255C184.576 24.2389 186.576 24.5906 187.752 24.838H187.763Z" fill="#AAFF00"/>
<path id="Vector_7" d="M213.642 19.9517C214.537 20.0121 215.372 18.6875 215.801 18.0279C215.954 17.0221 215.619 16.1207 215.054 15.3127C214.499 14.4992 213.768 13.7682 213.263 13.0537C212.79 13.0262 212.164 14.3618 212.027 15.8953C211.889 17.4288 212.241 19.1657 213.636 19.9462L213.642 19.9517Z" fill="#AAFF00"/>
</g>
</g>
</svg>
